<?xml version="1.0" encoding="utf-8"?>
<!-- Generator: Adobe Illustrator 26.0.2, SVG Export Plug-In . SVG Version: 6.00 Build 0)  -->
<svg version="1.1" id="Layer_1" xmlns="http://www.w3.org/2000/svg" xmlns:xlink="http://www.w3.org/1999/xlink" x="0px" y="0px"
	 viewBox="0 0 1890.36 500" style="enable-background:new 0 0 1890.36 500;" xml:space="preserve">
<style type="text/css">
	.st0{fill:#F57F20;}
	.st1{fill:#C12026;}
</style>
<g>
	<path class="st0" d="M450.81,0L450.81,0L0,0l0,450.81L450.81,0z M74.25,272.2l0-196.51l196.51,0L74.25,272.2z"/>
	<polygon class="st1" points="49.19,500 500,500 500,425.75 416.61,425.75 227.8,425.75 424.31,229.24 424.31,350.15 500,350.15 
		500,49.19 500,49.19 	"/>
</g>
<g>
	<g>
		<path class="st0" d="M603.12,339.32v-333h126c27,0,50.77,4.73,71.33,14.17c20.55,9.45,37.58,22.13,51.08,38.03
			c13.5,15.9,23.7,33.75,30.6,53.55c6.9,19.8,10.35,40.05,10.35,60.75s-3.45,40.95-10.35,60.75c-6.9,19.8-17.1,37.65-30.6,53.55
			c-13.5,15.91-30.53,28.58-51.08,38.03c-20.55,9.45-44.33,14.17-71.33,14.17H603.12z M725.97,67.07h-53.55v210.6h53.55
			c21.9,0,39.97-5.1,54.22-15.3c14.25-10.2,24.9-23.4,31.95-39.6c7.04-16.2,10.58-33,10.58-50.4c0-17.4-3.53-34.12-10.58-50.17
			c-7.05-16.05-17.71-29.25-31.95-39.6C765.94,72.24,747.86,67.07,725.97,67.07z"/>
		<path class="st0" d="M905.96,339.32l113.4-333h92.25l113.4,333h-72.9l-21.15-65.25h-130.5l-21.6,65.25H905.96z M1019.81,213.77
			h91.8l-45.9-139.05L1019.81,213.77z"/>
		<path class="st0" d="M1406.37,343.82c-27.61,0-51.68-4.87-72.23-14.62c-20.55-9.75-37.73-22.79-51.52-39.15
			c-13.8-16.35-24.15-34.72-31.05-55.12c-6.9-20.4-10.35-41.25-10.35-62.55c0-21,3.45-41.7,10.35-62.1
			c6.9-20.4,17.25-38.77,31.05-55.12c13.79-16.35,30.97-29.32,51.52-38.93c20.55-9.6,44.62-14.4,72.23-14.4
			c23.1,0,42.82,2.92,59.17,8.77c16.35,5.85,30,13.35,40.95,22.5c10.95,9.15,19.8,18.9,26.55,29.25s11.77,20.1,15.08,29.25
			c3.3,9.15,6,19.58,8.1,31.27h-68.85c-2.1-8.1-4.66-15.07-7.65-20.92c-3-5.85-7.42-11.62-13.28-17.33
			c-5.85-5.7-13.65-10.57-23.4-14.62c-9.75-4.05-21.83-6.07-36.23-6.07c-20.7,0-38.02,5.33-51.97,15.98
			c-13.95,10.65-24.46,24.23-31.5,40.72c-7.05,16.5-10.58,33.75-10.58,51.75s3.52,35.33,10.58,51.98
			c7.04,16.65,17.55,30.3,31.5,40.95c13.95,10.65,31.28,15.97,51.97,15.97c14.4,0,26.47-1.95,36.23-5.85
			c9.75-3.9,17.55-8.78,23.4-14.62c5.85-5.85,10.27-11.7,13.28-17.55c3-5.85,5.55-12.67,7.65-20.47h68.85
			c-2.1,11.7-4.8,22.13-8.1,31.27c-3.3,9.15-8.33,18.9-15.08,29.25c-6.75,10.35-15.6,20.1-26.55,29.25
			c-10.96,9.15-24.6,16.65-40.95,22.5C1449.19,340.89,1429.46,343.82,1406.37,343.82z"/>
		<path class="st0" d="M1569.72,339.32l113.4-333h92.25l113.4,333h-72.9l-21.15-65.25h-130.5l-21.6,65.25H1569.72z M1683.57,213.77
			h91.8l-45.9-139.05L1683.57,213.77z"/>
	</g>
	<g>
		<path class="st1" d="M642.34,472.32c-6.23,0-11.67-1.14-16.33-3.41c-4.66-2.27-8.54-5.32-11.66-9.13
			c-3.12-3.81-5.46-8.08-7.04-12.81c-1.58-4.72-2.36-9.57-2.36-14.54c0-4.97,0.79-9.83,2.36-14.6c1.58-4.76,3.92-9.05,7.04-12.86
			c3.11-3.81,7-6.84,11.66-9.08c4.65-2.24,10.1-3.36,16.33-3.36c5.11,0,9.5,0.67,13.18,2c3.67,1.33,6.75,3.03,9.24,5.09
			c2.48,2.07,4.48,4.25,5.98,6.56c1.5,2.31,2.62,4.51,3.36,6.61c0.74,2.1,1.38,4.45,1.94,7.04h-12.29
			c-0.49-2.17-1.14-4.06-1.94-5.67c-0.81-1.61-2-3.2-3.57-4.78c-1.57-1.58-3.64-2.9-6.19-3.99c-2.56-1.08-5.76-1.63-9.61-1.63
			c-4.13,0-7.75,0.81-10.87,2.42c-3.12,1.61-5.72,3.78-7.82,6.51c-2.1,2.73-3.66,5.81-4.67,9.24s-1.52,6.93-1.52,10.5
			c0,3.57,0.51,7.05,1.52,10.45c1.01,3.4,2.57,6.48,4.67,9.24c2.1,2.77,4.71,4.95,7.82,6.56c3.11,1.61,6.74,2.42,10.87,2.42
			c3.85,0,7.05-0.54,9.61-1.63c2.55-1.08,4.62-2.43,6.19-4.04c1.58-1.61,2.76-3.22,3.57-4.83c0.8-1.61,1.45-3.5,1.94-5.67h12.29
			c-0.56,2.66-1.21,5.02-1.94,7.09c-0.74,2.07-1.86,4.27-3.36,6.62c-1.51,2.35-3.5,4.55-5.98,6.62c-2.49,2.07-5.57,3.76-9.24,5.09
			C651.85,471.65,647.45,472.32,642.34,472.32z"/>
		<path class="st1" d="M715.63,472.32c-6.02,0-11.11-1.37-15.28-4.09c-4.17-2.73-7.33-6.3-9.5-10.71c-2.17-4.41-3.25-9.1-3.25-14.07
			c0-4.97,1.08-9.66,3.25-14.07c2.17-4.41,5.34-7.98,9.5-10.71c4.16-2.73,9.26-4.09,15.28-4.09c6.02,0,11.11,1.37,15.28,4.09
			c4.16,2.73,7.33,6.3,9.5,10.71c2.17,4.41,3.25,9.1,3.25,14.07c0,4.97-1.09,9.66-3.25,14.07c-2.17,4.41-5.34,7.98-9.5,10.71
			C726.74,470.96,721.65,472.32,715.63,472.32z M697.68,407.96l13.02-18.06h9.87l13.02,18.06H723.4l-7.88-11.13l-7.67,11.13H697.68z
			 M715.63,462.14c3.43,0,6.32-0.88,8.66-2.62c2.34-1.75,4.13-4.06,5.36-6.93c1.22-2.87,1.84-5.91,1.84-9.13
			c0-3.29-0.61-6.35-1.84-9.19c-1.23-2.83-3.01-5.13-5.36-6.88c-2.35-1.75-5.23-2.62-8.66-2.62c-3.43,0-6.32,0.88-8.66,2.62
			c-2.35,1.75-4.13,4.04-5.36,6.88c-1.23,2.83-1.84,5.9-1.84,9.19c0,3.22,0.61,6.27,1.84,9.13c1.22,2.87,3.01,5.18,5.36,6.93
			C709.31,461.26,712.2,462.14,715.63,462.14z M715.63,495.84c-2.17,0-3.94-0.74-5.3-2.21c-1.36-1.47-2.05-3.19-2.05-5.15
			c0-2.03,0.68-3.76,2.05-5.2c1.37-1.44,3.13-2.15,5.3-2.15c2.1,0,3.85,0.72,5.25,2.15c1.4,1.43,2.1,3.17,2.1,5.2
			c0,2.03-0.7,3.76-2.1,5.2C719.48,495.12,717.73,495.84,715.63,495.84z"/>
		<path class="st1" d="M756.69,471.27v-55.65h11.97v8.08h0.63c0.49-0.98,1.33-2.19,2.52-3.62c1.19-1.43,2.85-2.71,4.99-3.83
			c2.13-1.12,4.85-1.68,8.14-1.68c4.13,0,7.59,0.95,10.4,2.83c2.8,1.89,4.92,4.41,6.35,7.56c1.43,3.15,2.15,6.61,2.15,10.39v35.91
			h-11.97v-34.65c0-3.36-0.93-6.19-2.78-8.5c-1.86-2.31-4.6-3.46-8.24-3.46c-2.87,0-5.2,0.72-6.98,2.15
			c-1.79,1.44-3.1,3.29-3.94,5.57c-0.84,2.28-1.26,4.71-1.26,7.3v31.61H756.69z"/>
		<path class="st1" d="M844.89,493.43c-4.83,0-8.82-0.63-11.97-1.89c-3.15-1.26-5.67-2.82-7.56-4.67c-1.89-1.86-3.29-3.71-4.2-5.57
			c-0.91-1.86-1.65-4.04-2.21-6.56h11.86c0.56,1.75,1.31,3.2,2.26,4.36c0.95,1.16,2.36,2.17,4.25,3.04
			c1.89,0.88,4.37,1.31,7.46,1.31c3.64,0,6.56-0.72,8.77-2.15c2.21-1.44,3.78-3.33,4.73-5.67c0.95-2.35,1.42-4.88,1.42-7.61v-6.3
			h-0.52c-0.77,1.19-1.87,2.5-3.31,3.94c-1.44,1.44-3.34,2.68-5.72,3.73c-2.38,1.05-5.25,1.57-8.61,1.57c-4.2,0-7.86-0.8-10.97-2.42
			c-3.12-1.61-5.71-3.76-7.77-6.46c-2.07-2.69-3.62-5.72-4.67-9.08c-1.05-3.36-1.57-6.79-1.57-10.29c0-3.5,0.52-6.91,1.57-10.24
			c1.05-3.32,2.61-6.33,4.67-9.03c2.06-2.69,4.65-4.85,7.77-6.46c3.11-1.61,6.77-2.42,10.97-2.42c3.36,0,6.23,0.51,8.61,1.52
			c2.38,1.02,4.3,2.24,5.78,3.67c1.47,1.44,2.55,2.78,3.25,4.04h0.52v-8.19h11.97v52.29c0,4.97-1.02,9.38-3.04,13.23
			c-2.03,3.85-5.04,6.86-9.03,9.03C855.6,492.34,850.69,493.43,844.89,493.43z M844.26,461.09c3.43,0,6.3-0.89,8.61-2.68
			c2.31-1.79,4.02-4.08,5.14-6.88c1.12-2.8,1.68-5.74,1.68-8.82c0-3.08-0.56-6.02-1.68-8.82c-1.12-2.8-2.83-5.07-5.14-6.83
			c-2.31-1.75-5.18-2.62-8.61-2.62c-3.5,0-6.41,0.88-8.71,2.62c-2.31,1.75-4.03,4.03-5.15,6.83c-1.12,2.8-1.68,5.74-1.68,8.82
			c0,3.08,0.56,6.02,1.68,8.82c1.12,2.8,2.83,5.09,5.15,6.88C837.85,460.19,840.75,461.09,844.26,461.09z"/>
		<path class="st1" d="M934.03,472.32c-4.41,0-7.95-0.81-10.61-2.42c-2.66-1.61-4.57-3.76-5.72-6.46c-1.16-2.69-1.73-5.62-1.73-8.77
			v-29.4h-9.77v-9.66h9.77v-13.86h11.97v13.86h13.02v9.66h-13.02v29.19c0,5.25,2.9,7.88,8.71,7.88c1.47,0,3.46-0.21,5.99-0.63v9.76
			C939.21,472.04,936.34,472.32,934.03,472.32z"/>
		<path class="st1" d="M977.71,414.57c3.5,0,6.42,0.56,8.77,1.68c2.34,1.12,4.22,2.41,5.62,3.88c1.4,1.47,2.42,2.73,3.04,3.78h0.63
			v-8.29h11.97v55.65h-11.97v-8.29h-0.63c-0.63,1.05-1.65,2.31-3.04,3.78c-1.4,1.47-3.27,2.77-5.62,3.88
			c-2.35,1.12-5.27,1.68-8.77,1.68c-4.2,0-7.86-0.82-10.97-2.47c-3.12-1.64-5.72-3.85-7.82-6.61c-2.1-2.76-3.66-5.86-4.67-9.29
			c-1.02-3.43-1.52-6.93-1.52-10.5c0-3.57,0.51-7.07,1.52-10.5c1.01-3.43,2.57-6.53,4.67-9.29c2.1-2.76,4.71-4.97,7.82-6.62
			C969.85,415.39,973.51,414.57,977.71,414.57z M980.33,424.55c-3.43,0-6.3,0.93-8.61,2.78c-2.31,1.86-4.04,4.22-5.2,7.09
			c-1.16,2.87-1.73,5.88-1.73,9.03c0,3.15,0.58,6.16,1.73,9.03c1.15,2.87,2.89,5.23,5.2,7.09c2.31,1.86,5.18,2.78,8.61,2.78
			s6.28-0.93,8.56-2.78c2.27-1.85,3.99-4.22,5.15-7.09c1.16-2.87,1.73-5.88,1.73-9.03c0-3.15-0.58-6.16-1.73-9.03
			c-1.16-2.87-2.87-5.23-5.15-7.09C986.62,425.47,983.76,424.55,980.33,424.55z M985.58,407.43l-9.55-0.11l8.82-18.9h11.76
			L985.58,407.43z"/>
		<path class="st1" d="M1049.32,472.32c-4.69,0-8.79-0.82-12.29-2.47c-3.5-1.64-6.4-3.85-8.71-6.61c-2.31-2.76-4.04-5.86-5.2-9.29
			c-1.15-3.43-1.73-6.93-1.73-10.5c0-3.57,0.58-7.07,1.73-10.5c1.15-3.43,2.89-6.53,5.2-9.29c2.31-2.76,5.21-4.97,8.71-6.62
			c3.5-1.64,7.6-2.47,12.29-2.47c4.62,0,8.45,0.68,11.5,2.05s5.48,3.06,7.3,5.09s3.19,4.06,4.1,6.09c0.91,2.03,1.61,4.45,2.1,7.25
			h-11.34c-0.63-2.1-1.4-3.85-2.31-5.25c-0.91-1.4-2.26-2.62-4.04-3.68c-1.79-1.05-4.18-1.57-7.19-1.57c-3.57,0-6.55,0.89-8.93,2.68
			c-2.38,1.79-4.18,4.11-5.41,6.98c-1.23,2.87-1.84,5.95-1.84,9.24c0,3.29,0.61,6.37,1.84,9.24c1.22,2.87,3.03,5.2,5.41,6.98
			s5.36,2.68,8.93,2.68c3.01,0,5.41-0.53,7.19-1.58c1.78-1.05,3.13-2.27,4.04-3.67c0.91-1.4,1.68-3.15,2.31-5.25h11.34
			c-0.49,2.8-1.19,5.22-2.1,7.25c-0.91,2.03-2.28,4.06-4.1,6.09c-1.82,2.03-4.25,3.73-7.3,5.09
			C1057.77,471.64,1053.94,472.32,1049.32,472.32z"/>
		<path class="st1" d="M1138.36,472.32c-4.69,0-8.79-0.82-12.29-2.47c-3.5-1.64-6.4-3.85-8.71-6.61c-2.31-2.76-4.04-5.86-5.2-9.29
			c-1.15-3.43-1.73-6.93-1.73-10.5c0-3.57,0.58-7.07,1.73-10.5c1.15-3.43,2.89-6.53,5.2-9.29c2.31-2.76,5.21-4.97,8.71-6.62
			c3.5-1.64,7.6-2.47,12.29-2.47c4.62,0,8.45,0.68,11.5,2.05s5.48,3.06,7.3,5.09s3.19,4.06,4.1,6.09c0.91,2.03,1.61,4.45,2.1,7.25
			h-11.34c-0.63-2.1-1.4-3.85-2.31-5.25c-0.91-1.4-2.26-2.62-4.04-3.68c-1.79-1.05-4.18-1.57-7.19-1.57c-3.57,0-6.55,0.89-8.93,2.68
			c-2.38,1.79-4.18,4.11-5.41,6.98c-1.23,2.87-1.84,5.95-1.84,9.24c0,3.29,0.61,6.37,1.84,9.24c1.22,2.87,3.03,5.2,5.41,6.98
			s5.36,2.68,8.93,2.68c3.01,0,5.41-0.53,7.19-1.58c1.78-1.05,3.13-2.27,4.04-3.67c0.91-1.4,1.68-3.15,2.31-5.25h11.34
			c-0.49,2.8-1.19,5.22-2.1,7.25c-0.91,2.03-2.28,4.06-4.1,6.09c-1.82,2.03-4.25,3.73-7.3,5.09
			C1146.81,471.64,1142.98,472.32,1138.36,472.32z"/>
		<path class="st1" d="M1195.48,472.32c-5.6,0-9.97-1.75-13.12-5.25c-3.15-3.5-4.72-8.15-4.72-13.96v-37.49h11.97v36.02
			c0,3.36,0.89,5.97,2.68,7.82c1.79,1.86,4.22,2.78,7.3,2.78c3.01,0,5.42-0.77,7.25-2.31c1.82-1.54,3.13-3.52,3.94-5.93
			c0.8-2.42,1.21-4.92,1.21-7.51v-30.87h11.97v55.65h-11.97v-7.98h-0.63c-0.56,1.05-1.45,2.29-2.68,3.73
			c-1.22,1.44-2.9,2.68-5.04,3.73C1201.48,471.8,1198.77,472.32,1195.48,472.32z M1196.21,407.43l-11.03-19h11.76l8.93,18.9
			L1196.21,407.43z"/>
		<path class="st1" d="M1238.63,471.27v-55.65h11.97v8.08h0.63c0.49-0.98,1.33-2.19,2.52-3.62c1.19-1.43,2.85-2.71,4.99-3.83
			c2.13-1.12,4.85-1.68,8.14-1.68c4.13,0,7.59,0.95,10.39,2.83c2.8,1.89,4.92,4.41,6.35,7.56c1.43,3.15,2.15,6.61,2.15,10.39v35.91
			h-11.97v-34.65c0-3.36-0.93-6.19-2.78-8.5c-1.86-2.31-4.6-3.46-8.24-3.46c-2.87,0-5.2,0.72-6.98,2.15
			c-1.79,1.44-3.1,3.29-3.94,5.57c-0.84,2.28-1.26,4.71-1.26,7.3v31.61H1238.63z"/>
		<path class="st1" d="M1326.83,493.43c-4.83,0-8.82-0.63-11.97-1.89c-3.15-1.26-5.67-2.82-7.56-4.67c-1.89-1.86-3.29-3.71-4.2-5.57
			c-0.91-1.86-1.65-4.04-2.21-6.56h11.86c0.56,1.75,1.31,3.2,2.26,4.36c0.95,1.16,2.36,2.17,4.25,3.04
			c1.89,0.88,4.37,1.31,7.46,1.31c3.64,0,6.56-0.72,8.77-2.15c2.21-1.44,3.78-3.33,4.73-5.67c0.95-2.35,1.42-4.88,1.42-7.61v-6.3
			h-0.52c-0.77,1.19-1.88,2.5-3.31,3.94c-1.44,1.44-3.34,2.68-5.72,3.73c-2.38,1.05-5.25,1.57-8.61,1.57c-4.2,0-7.86-0.8-10.97-2.42
			c-3.12-1.61-5.71-3.76-7.77-6.46c-2.07-2.69-3.62-5.72-4.67-9.08c-1.05-3.36-1.57-6.79-1.57-10.29c0-3.5,0.53-6.91,1.57-10.24
			c1.05-3.32,2.61-6.33,4.67-9.03c2.06-2.69,4.65-4.85,7.77-6.46c3.11-1.61,6.77-2.42,10.97-2.42c3.36,0,6.23,0.51,8.61,1.52
			c2.38,1.02,4.3,2.24,5.78,3.67c1.47,1.44,2.55,2.78,3.26,4.04h0.52v-8.19h11.97v52.29c0,4.97-1.02,9.38-3.04,13.23
			c-2.03,3.85-5.04,6.86-9.03,9.03C1337.54,492.34,1332.64,493.43,1326.83,493.43z M1326.2,461.09c3.43,0,6.3-0.89,8.61-2.68
			s4.03-4.08,5.14-6.88c1.12-2.8,1.68-5.74,1.68-8.82c0-3.08-0.56-6.02-1.68-8.82c-1.12-2.8-2.83-5.07-5.14-6.83
			c-2.31-1.75-5.18-2.62-8.61-2.62c-3.5,0-6.41,0.88-8.71,2.62c-2.31,1.75-4.03,4.03-5.15,6.83c-1.12,2.8-1.68,5.74-1.68,8.82
			c0,3.08,0.56,6.02,1.68,8.82c1.12,2.8,2.84,5.09,5.15,6.88C1319.79,460.19,1322.7,461.09,1326.2,461.09z"/>
		<path class="st1" d="M1392.66,491.85v-76.23h11.97v8.29h0.63c0.7-1.05,1.73-2.31,3.1-3.78c1.37-1.47,3.22-2.76,5.56-3.88
			c2.35-1.12,5.3-1.68,8.87-1.68c4.13,0,7.77,0.82,10.92,2.47c3.15,1.65,5.76,3.85,7.82,6.62c2.06,2.77,3.61,5.86,4.62,9.29
			c1.01,3.43,1.52,6.93,1.52,10.5c0,3.57-0.51,7.07-1.52,10.5c-1.02,3.43-2.56,6.53-4.62,9.29c-2.06,2.77-4.67,4.97-7.82,6.61
			c-3.15,1.64-6.79,2.47-10.92,2.47c-3.57,0-6.53-0.56-8.87-1.68s-4.2-2.42-5.56-3.88c-1.37-1.47-2.4-2.73-3.1-3.78h-0.63v28.88
			H1392.66z M1404.63,443.45c0,3.15,0.58,6.16,1.73,9.03c1.15,2.87,2.87,5.23,5.14,7.09c2.27,1.86,5.13,2.78,8.56,2.78
			c3.5,0,6.39-0.93,8.66-2.78c2.27-1.85,3.99-4.22,5.14-7.09c1.15-2.87,1.73-5.88,1.73-9.03c0-3.15-0.58-6.16-1.73-9.03
			c-1.16-2.87-2.87-5.23-5.14-7.09c-2.28-1.85-5.16-2.78-8.66-2.78c-3.43,0-6.28,0.93-8.56,2.78c-2.28,1.86-3.99,4.22-5.14,7.09
			C1405.21,437.29,1404.63,440.3,1404.63,443.45z"/>
		<path class="st1" d="M1461.44,471.27v-79.8h11.97v32.23h0.63c0.49-0.98,1.33-2.19,2.52-3.62c1.19-1.43,2.85-2.71,4.99-3.83
			c2.13-1.12,4.85-1.68,8.14-1.68c4.13,0,7.59,0.95,10.39,2.83c2.8,1.89,4.92,4.41,6.35,7.56c1.43,3.15,2.15,6.61,2.15,10.39v35.91
			h-11.97v-34.65c0-3.36-0.93-6.19-2.78-8.5c-1.86-2.31-4.6-3.46-8.24-3.46c-2.87,0-5.2,0.72-6.98,2.15
			c-1.79,1.44-3.1,3.29-3.94,5.57c-0.84,2.28-1.26,4.71-1.26,7.3v31.61H1461.44z"/>
		<path class="st1" d="M1546.7,414.57c3.5,0,6.42,0.56,8.77,1.68c2.34,1.12,4.22,2.41,5.62,3.88c1.4,1.47,2.42,2.73,3.04,3.78h0.63
			v-8.29h11.97v55.65h-11.97v-8.29h-0.63c-0.63,1.05-1.64,2.31-3.04,3.78c-1.4,1.47-3.27,2.77-5.62,3.88
			c-2.35,1.12-5.27,1.68-8.77,1.68c-4.2,0-7.86-0.82-10.97-2.47c-3.12-1.64-5.72-3.85-7.82-6.61c-2.1-2.76-3.66-5.86-4.67-9.29
			c-1.02-3.43-1.52-6.93-1.52-10.5c0-3.57,0.51-7.07,1.52-10.5c1.01-3.43,2.57-6.53,4.67-9.29c2.1-2.76,4.71-4.97,7.82-6.62
			C1538.84,415.39,1542.5,414.57,1546.7,414.57z M1549.32,424.55c-3.43,0-6.3,0.93-8.61,2.78c-2.31,1.86-4.04,4.22-5.2,7.09
			c-1.16,2.87-1.73,5.88-1.73,9.03c0,3.15,0.58,6.16,1.73,9.03c1.15,2.87,2.89,5.23,5.2,7.09c2.31,1.86,5.18,2.78,8.61,2.78
			s6.28-0.93,8.56-2.78c2.28-1.85,3.99-4.22,5.15-7.09c1.15-2.87,1.73-5.88,1.73-9.03c0-3.15-0.58-6.16-1.73-9.03
			c-1.16-2.87-2.87-5.23-5.15-7.09C1555.6,425.47,1552.75,424.55,1549.32,424.55z M1554.57,407.43l-9.55-0.11l8.82-18.9h11.76
			L1554.57,407.43z"/>
		<path class="st1" d="M1613.79,472.32c-4.41,0-7.95-0.81-10.61-2.42c-2.66-1.61-4.57-3.76-5.72-6.46
			c-1.15-2.69-1.73-5.62-1.73-8.77v-29.4h-9.77v-9.66h9.77v-13.86h11.97v13.86h13.02v9.66h-13.02v29.19c0,5.25,2.9,7.88,8.71,7.88
			c1.47,0,3.46-0.21,5.98-0.63v9.76C1618.97,472.04,1616.1,472.32,1613.79,472.32z"/>
		<path class="st1" d="M1683.2,472.32c-4.41,0-7.95-0.81-10.61-2.42c-2.66-1.61-4.57-3.76-5.72-6.46c-1.15-2.69-1.73-5.62-1.73-8.77
			v-29.4h-9.77v-9.66h9.77v-13.86h11.97v13.86h13.02v9.66h-13.02v29.19c0,5.25,2.9,7.88,8.71,7.88c1.47,0,3.46-0.21,5.98-0.63v9.76
			C1688.38,472.04,1685.51,472.32,1683.2,472.32z"/>
		<path class="st1" d="M1704.09,471.27v-55.65h11.97v7.35h0.42c1.05-2.17,2.71-4.11,4.99-5.83c2.27-1.71,5.58-2.57,9.92-2.57
			c1.33,0,2.94,0.14,4.83,0.42v11.55c-2.1-0.28-3.81-0.42-5.14-0.42c-4.9,0-8.63,1.38-11.18,4.15c-2.56,2.77-3.83,7.23-3.83,13.39
			v27.62H1704.09z"/>
		<path class="st1" d="M1755.85,406.07c-2.17,0-3.96-0.74-5.35-2.21c-1.4-1.47-2.1-3.18-2.1-5.14c0-2.03,0.7-3.76,2.1-5.2
			c1.4-1.43,3.18-2.15,5.35-2.15s3.97,0.72,5.41,2.15c1.43,1.44,2.15,3.17,2.15,5.2c0,2.03-0.72,3.76-2.15,5.2
			C1759.83,405.35,1758.02,406.07,1755.85,406.07z M1749.97,471.27v-55.65h11.97v55.65H1749.97z"/>
		<path class="st1" d="M1803.73,472.32c-4.62,0-8.64-0.82-12.07-2.47c-3.43-1.64-6.25-3.85-8.45-6.61
			c-2.21-2.76-3.85-5.86-4.93-9.29c-1.09-3.43-1.63-6.93-1.63-10.5c0-3.5,0.54-6.96,1.63-10.39c1.08-3.43,2.71-6.54,4.88-9.35
			c2.17-2.8,4.92-5.02,8.24-6.67c3.32-1.64,7.3-2.47,11.92-2.47c4.83,0,9.14,1.1,12.92,3.31s6.74,5.46,8.87,9.76
			c2.13,4.31,3.2,9.64,3.2,16.01v3.25h-39.58c0.28,4.27,1.71,7.95,4.3,11.03c2.59,3.08,6.16,4.62,10.71,4.62
			c2.59,0,4.73-0.44,6.41-1.31c1.68-0.88,2.99-1.87,3.94-2.99c0.95-1.12,1.77-2.52,2.47-4.2h11.13c-0.7,2.45-1.51,4.58-2.42,6.4
			c-0.91,1.82-2.26,3.64-4.04,5.46c-1.78,1.82-4.09,3.34-6.93,4.57C1811.45,471.71,1807.93,472.32,1803.73,472.32z M1785.25,408.06
			l13.02-15.65h9.87l13.02,15.65h-10.19l-7.77-9.45l-7.77,9.45H1785.25z M1788.82,438.51h27.82c-0.21-4.9-1.65-8.5-4.3-10.82
			c-2.66-2.31-5.71-3.46-9.13-3.46c-3.99,0-7.28,1.28-9.87,3.83C1790.75,430.62,1789.24,434.1,1788.82,438.51z M1816.96,395.67
			v-3.47c0-0.7,0.16-1.43,0.47-2.2c0.31-0.77,0.93-1.37,1.84-1.79l1.47-0.74c3.15-1.61,4.72-3.36,4.72-5.25
			c0-0.91-0.37-1.75-1.1-2.52c-0.73-0.77-1.84-1.16-3.31-1.16c-1.33,0-2.31,0.3-2.94,0.89c-0.63,0.6-1.05,1.24-1.26,1.94
			c-0.21,0.7-0.31,1.23-0.31,1.58h-7.66c0-1.82,0.4-3.57,1.21-5.25c0.8-1.68,2.12-3.08,3.94-4.2c1.82-1.12,4.13-1.68,6.93-1.68
			c3.85,0,6.91,1,9.19,2.99c2.27,2,3.41,4.39,3.41,7.19c0,4.13-2.83,7.6-8.5,10.39l-0.53,0.21v3.04H1816.96z"/>
		<path class="st1" d="M1841.32,471.27v-55.65h11.97v8.08h0.63c0.49-0.98,1.33-2.19,2.52-3.62c1.19-1.43,2.85-2.71,4.99-3.83
			c2.13-1.12,4.85-1.68,8.14-1.68c4.13,0,7.59,0.95,10.39,2.83c2.8,1.89,4.92,4.41,6.35,7.56c1.43,3.15,2.15,6.61,2.15,10.39v35.91
			h-11.97v-34.65c0-3.36-0.93-6.19-2.78-8.5c-1.86-2.31-4.6-3.46-8.24-3.46c-2.87,0-5.2,0.72-6.98,2.15
			c-1.79,1.44-3.1,3.29-3.94,5.57c-0.84,2.28-1.26,4.71-1.26,7.3v31.61H1841.32z"/>
	</g>
</g>
</svg>
